<?xml version="1.0" standalone="no"?>
<!DOCTYPE svg PUBLIC "-//W3C//DTD SVG 20010904//EN"
 "http://www.w3.org/TR/2001/REC-SVG-20010904/DTD/svg10.dtd">
<svg version="1.0" xmlns="http://www.w3.org/2000/svg"
 width="128.000000pt" height="128.000000pt" viewBox="0 0 128.000000 128.000000"
 preserveAspectRatio="xMidYMid meet">
<metadata>
Created by potrace 1.11, written by Peter Selinger 2001-2013
</metadata>
<g transform="translate(0.000000,128.000000) scale(0.100000,-0.100000)"
fill="#000000" stroke="none">
<path d="M0 640 l0 -640 640 0 640 0 0 640 0 640 -640 0 -640 0 0 -640z m160
-15 l0 -505 -29 0 c-17 0 -31 6 -35 16 -8 20 -8 958 0 978 4 10 18 16 35 16
l29 0 0 -505z m258 3 l-3 -503 -27 -3 -28 -3 0 505 0 506 30 0 30 0 -2 -502z
m708 176 c77 -80 140 -149 142 -153 3 -10 -275 -281 -288 -281 -23 0 -5 40 70
156 l80 124 -23 37 c-13 21 -50 77 -81 125 -51 79 -71 138 -47 138 5 0 71 -66
147 -146z m-138 -60 c2 -15 -4 -23 -20 -28 -30 -8 -411 -8 -432 0 -16 6 -22
35 -9 48 4 3 108 5 232 4 222 -3 226 -3 229 -24z m0 -160 c2 -15 -4 -23 -20
-28 -30 -8 -411 -8 -432 0 -16 6 -22 35 -9 48 4 3 108 5 232 4 222 -3 226 -3
229 -24z"/>
</g>
</svg>
